<?xml version="1.0" standalone="no"?>
<!DOCTYPE svg PUBLIC "-//W3C//DTD SVG 20010904//EN"
 "http://www.w3.org/TR/2001/REC-SVG-20010904/DTD/svg10.dtd">
<svg version="1.0" xmlns="http://www.w3.org/2000/svg"
 width="261.000000pt" height="261.000000pt" viewBox="0 0 261.000000 261.000000"
 preserveAspectRatio="xMidYMid meet">
<metadata>
Created by potrace 1.11, written by Peter Selinger 2001-2013
</metadata>
<g transform="translate(0.000000,261.000000) scale(0.100000,-0.100000)"
fill="#000000" stroke="none">
<path d="M479 2444 c-1 -11 -1 -21 -1 -24 0 -3 3 -79 6 -170 4 -91 9 -210 11
-265 5 -85 3 -104 -12 -126 -133 -195 -163 -249 -200 -369 -42 -132 -59 -302
-42 -410 4 -25 10 -70 14 -100 31 -247 223 -537 451 -682 88 -56 235 -120 309
-134 28 -5 66 -13 95 -20 14 -4 84 -8 155 -10 188 -4 325 26 489 107 309 154
528 458 572 796 8 60 7 200 -1 273 -19 172 -104 374 -220 520 -37 48 -43 62
-40 96 3 41 12 131 20 199 3 22 7 67 10 100 3 33 7 74 10 90 11 72 15 145 9
145 -4 0 -116 -63 -249 -140 -133 -77 -250 -140 -259 -140 -10 0 -44 7 -75 15
-152 39 -323 40 -489 2 l-113 -26 -197 128 c-108 70 -209 135 -224 145 -27 18
-28 18 -29 0z m298 -302 c131 -85 144 -91 170 -81 34 13 36 14 148 37 134 29
330 24 446 -12 l87 -26 166 95 c212 122 200 117 193 69 -4 -21 -9 -70 -12
-109 -7 -88 -16 -191 -21 -230 -2 -21 5 -40 25 -65 136 -171 212 -324 239
-483 4 -23 6 -105 6 -182 -2 -161 -25 -259 -93 -400 -214 -437 -756 -630
-1225 -435 -259 108 -473 362 -537 640 -21 89 -23 107 -22 235 1 144 17 224
73 359 30 72 130 233 154 248 7 5 12 79 14 233 l3 227 22 -15 c12 -7 86 -55
164 -105z"/>
<path d="M908 1621 c-91 -30 -138 -96 -138 -197 0 -107 66 -181 168 -188 70
-5 117 11 162 56 113 111 39 316 -121 333 -24 2 -56 0 -71 -4z"/>
<path d="M1568 1620 c-90 -26 -140 -95 -141 -193 0 -71 17 -112 63 -151 125
-105 325 -11 323 151 -2 128 -128 227 -245 193z"/>
<path d="M630 1026 c1 -89 60 -257 127 -358 91 -139 255 -243 418 -265 82 -12
210 -6 277 13 262 71 474 314 495 567 5 61 4 67 -13 68 -11 1 -308 2 -661 3
l-643 2 0 -30z m1195 -109 c-15 -71 -78 -180 -145 -246 -171 -172 -419 -217
-630 -114 -139 67 -277 230 -296 350 l-6 42 541 0 542 0 -6 -32z"/>
</g>
</svg>
